<svg width="127" height="20" viewBox="0 0 127 20" fill="none" xmlns="http://www.w3.org/2000/svg">
<g clip-path="url(#clip0_8360_4885)">
<path d="M17.7208 0.769454C18.1609 0.311132 18.7585 0.0536499 19.3809 0.0536499C22.1809 0.0536499 24.8196 0.0536513 27.4181 0.0536566C32.6445 0.0536675 35.2617 6.63471 31.5661 10.4836L23.5161 18.8675C23.1465 19.2524 22.5146 18.9798 22.5146 18.4354V11.0512L23.4449 10.0823C24.184 9.31257 23.6606 7.99633 22.6153 7.99633H10.7817L17.7208 0.769454Z" fill="#0E0E0E"/>
<path d="M15.5753 18.2782C15.1353 18.7365 14.5376 18.994 13.9153 18.994C11.1153 18.994 8.47656 18.994 5.87801 18.994C0.651566 18.994 -1.96558 12.413 1.73006 8.564L9.78005 0.180176C10.1496 -0.204718 10.7815 0.0678796 10.7815 0.6122L10.7815 7.99633L9.8512 8.96529C9.11208 9.7351 9.63554 11.0513 10.6808 11.0513L22.5144 11.0512L15.5753 18.2782Z" fill="#0E0E0E"/>
<path d="M79.9819 6.40002V15.9214H82.775V6.40002H79.9819Z" fill="#0E0E0E"/>
<path d="M80.1763 4.81607C80.5064 5.1464 80.9098 5.31159 81.3873 5.31159C81.8644 5.31159 82.2654 5.1464 82.5893 4.81607C82.9194 4.4857 83.0845 4.08455 83.0845 3.61261C83.0845 3.12888 82.9194 2.72478 82.5893 2.40032C82.2654 2.06997 81.8644 1.90479 81.3873 1.90479C80.9098 1.90479 80.5064 2.06997 80.1763 2.40032C79.8462 2.72478 79.6812 3.12888 79.6812 3.61261C79.6812 4.08455 79.8462 4.4857 80.1763 4.81607Z" fill="#0E0E0E"/>
<path fill-rule="evenodd" clip-rule="evenodd" d="M84.3506 19.6379V6.40001H87.0024V7.34682H87.0371C87.204 7.18206 87.3838 7.03163 87.577 6.89553C88.2015 6.45896 88.9202 6.24072 89.7336 6.24072C90.4466 6.24072 91.1272 6.42653 91.7756 6.7982C92.4296 7.16982 92.96 7.72144 93.3666 8.45291C93.7728 9.18444 93.9702 10.0959 93.9588 11.1872C93.9645 12.0131 93.8494 12.7328 93.614 13.3463C93.3781 13.954 93.0598 14.4583 92.6593 14.8595C92.2588 15.2606 91.8108 15.5615 91.3156 15.7621C90.8209 15.9626 90.3201 16.0629 89.813 16.0629C89.0115 16.0629 88.2928 15.8388 87.6564 15.3904C87.4961 15.2761 87.3444 15.1522 87.2012 15.0188H87.1436V19.6379H84.3506ZM89.159 13.7268C89.5714 13.7209 89.9338 13.6118 90.2463 13.3994C90.5584 13.1871 90.8033 12.8862 90.9798 12.4969C91.1567 12.1075 91.2424 11.6532 91.2362 11.1341C91.2424 10.6032 91.1539 10.149 90.9712 9.77139C90.7943 9.38796 90.5441 9.09591 90.2197 8.89534C89.8958 8.68891 89.5243 8.58858 89.1062 8.59448C88.7114 8.58858 88.3575 8.68596 88.0455 8.88653C87.733 9.0871 87.4856 9.3791 87.303 9.76253C87.1203 10.1401 87.029 10.5973 87.029 11.1341C87.029 11.6532 87.1203 12.1075 87.303 12.4969C87.4913 12.8862 87.7449 13.1871 88.0631 13.3994C88.3813 13.6118 88.7466 13.7209 89.159 13.7268Z" fill="#0E0E0E"/>
<path d="M96.6487 15.7709C97.1671 15.9656 97.7094 16.0629 98.2749 16.0629C98.9232 16.0629 99.5154 15.9361 100.051 15.6824C100.594 15.4287 101.027 15.0748 101.351 14.6206C101.681 14.1604 101.846 13.6324 101.846 13.0366C101.846 12.5646 101.746 12.1665 101.546 11.842C101.351 11.5176 101.103 11.2521 100.803 11.0456C100.508 10.8391 100.205 10.6769 99.8926 10.5589C99.5801 10.435 99.3061 10.3406 99.0702 10.2757C98.7639 10.1873 98.4695 10.0958 98.1865 10.0015C97.9039 9.90708 97.6708 9.79498 97.4882 9.66517C97.3055 9.53541 97.2142 9.36431 97.2142 9.15193C97.2142 8.9396 97.3055 8.7626 97.4882 8.62103C97.6708 8.47946 97.9006 8.40865 98.1779 8.40865C98.5075 8.40865 98.7786 8.49712 98.9908 8.67412C99.2091 8.85108 99.3737 9.03398 99.4859 9.22274L101.634 8.2936C101.363 7.68008 100.903 7.1875 100.255 6.81584C99.6125 6.44422 98.8876 6.25836 98.0804 6.25836C97.4325 6.25836 96.8546 6.37931 96.348 6.62117C95.8472 6.86303 95.4495 7.19931 95.1546 7.62993C94.8659 8.05469 94.7218 8.54727 94.7218 9.10769C94.7218 9.63865 94.8455 10.0899 95.0928 10.4616C95.3406 10.8332 95.6617 11.14 96.0565 11.3819C96.457 11.6178 96.8813 11.8036 97.3293 11.9394C97.5239 11.9925 97.736 12.0514 97.9657 12.1163C98.2012 12.1812 98.4252 12.2579 98.6374 12.3464C98.8495 12.4349 99.0231 12.5411 99.1587 12.6649C99.2943 12.7888 99.3623 12.9363 99.3623 13.1074C99.3623 13.2431 99.3152 13.3699 99.2205 13.4879C99.1325 13.6059 99.0084 13.7032 98.8495 13.7799C98.6902 13.8507 98.5047 13.8861 98.2925 13.8861C97.892 13.8861 97.5443 13.7622 97.2494 13.5145C96.955 13.2666 96.7343 13.0042 96.5868 12.7269L94.3945 13.6914C94.5948 14.1693 94.8925 14.5881 95.2873 14.9479C95.6821 15.3019 96.1359 15.5762 96.6487 15.7709Z" fill="#0E0E0E"/>
<path d="M113.2 15.9213V6.39998H115.86V7.61227H115.909C116.117 7.3226 116.351 7.07779 116.612 6.87779C117.142 6.46484 117.769 6.25836 118.494 6.25836C119.095 6.25836 119.605 6.40584 120.023 6.70084C120.346 6.9207 120.609 7.21565 120.813 7.5857H120.863C121.164 7.20141 121.529 6.9005 121.959 6.68312C122.519 6.39998 123.129 6.25836 123.789 6.25836C124.419 6.25836 124.938 6.37046 125.344 6.59465C125.751 6.81289 126.069 7.10198 126.299 7.46184C126.529 7.81579 126.691 8.20512 126.785 8.62989C126.88 9.0487 126.927 9.45574 126.927 9.85103V15.9213H124.116V10.1961C124.116 9.67698 124.007 9.27879 123.789 9.0015C123.577 8.71836 123.264 8.57679 122.852 8.57679C122.581 8.57679 122.339 8.63874 122.127 8.7626C121.921 8.8806 121.756 9.0605 121.632 9.30236C121.514 9.54427 121.455 9.84217 121.455 10.1961V15.9213H118.662V10.1961C118.662 9.67698 118.553 9.27879 118.335 9.0015C118.117 8.71836 117.802 8.57679 117.389 8.57679C116.989 8.57679 116.656 8.71541 116.39 8.9927C116.125 9.26403 115.993 9.67108 115.993 10.2138V15.9213H113.2Z" fill="#0E0E0E"/>
<path d="M106.365 16.0629C105.711 16.0629 105.116 15.9243 104.58 15.6471C104.043 15.3639 103.616 14.9509 103.298 14.4082C102.986 13.8596 102.829 13.1841 102.829 12.3818V6.40002H105.622V12.0102C105.622 12.5588 105.764 12.9776 106.046 13.2667C106.335 13.5499 106.686 13.6915 107.099 13.6915C107.405 13.6915 107.673 13.6236 107.903 13.4879C108.138 13.3523 108.321 13.1605 108.451 12.9127C108.586 12.6591 108.654 12.3582 108.654 12.0102V6.40002H111.447V12.5854C111.447 12.9275 111.497 13.1753 111.597 13.3286C111.698 13.482 111.901 13.6148 112.207 13.7268L111.217 16.0629C110.516 15.8801 110.003 15.6412 109.679 15.3462C109.516 15.1976 109.393 15.0265 109.308 14.833H109.238C108.991 15.0814 108.717 15.3026 108.416 15.4966C107.82 15.8742 107.137 16.0629 106.365 16.0629Z" fill="#0E0E0E"/>
<path fill-rule="evenodd" clip-rule="evenodd" d="M73.9338 16.0629C73.0201 16.0629 72.1862 15.8535 71.4323 15.4346C70.6837 15.0158 70.0858 14.4376 69.6377 13.7003C69.1958 12.9628 68.9751 12.1134 68.9751 11.1518C68.9751 10.1902 69.1958 9.34074 69.6377 8.60331C70.0858 7.86593 70.6837 7.29074 71.4323 6.87779C72.1862 6.46484 73.0201 6.25836 73.9338 6.25836C74.8647 6.25836 75.7042 6.46484 76.4529 6.87779C77.2011 7.29074 77.7933 7.86593 78.2294 8.60331C78.6713 9.34074 78.892 10.1902 78.892 11.1518C78.892 12.1134 78.6713 12.9628 78.2294 13.7003C77.7933 14.4376 77.1982 15.0158 76.4438 15.4346C75.6956 15.8535 74.859 16.0629 73.9338 16.0629ZM73.9338 13.6737C74.3695 13.6737 74.7614 13.5676 75.1091 13.3552C75.4569 13.1428 75.7308 12.8478 75.9311 12.4703C76.1313 12.0927 76.2317 11.6532 76.2317 11.1518C76.2317 10.6681 76.1347 10.2374 75.9401 9.85984C75.7456 9.48231 75.4773 9.18736 75.1358 8.97498C74.7938 8.75669 74.399 8.64755 73.9514 8.64755C73.5095 8.64755 73.1114 8.75374 72.758 8.96612C72.4103 9.1726 72.1363 9.4646 71.936 9.84217C71.7358 10.2197 71.6354 10.6563 71.6354 11.1518C71.6354 11.6532 71.7358 12.0927 71.936 12.4703C72.142 12.8478 72.4193 13.1428 72.767 13.3552C73.1147 13.5676 73.5033 13.6737 73.9338 13.6737Z" fill="#0E0E0E"/>
<path fill-rule="evenodd" clip-rule="evenodd" d="M60.7083 19.4874C61.3681 19.6821 62.093 19.7794 62.8825 19.7794C63.6193 19.7794 64.2938 19.685 64.9069 19.4963C65.5196 19.3134 66.0499 19.0361 66.4975 18.6645C66.9513 18.2929 67.3019 17.8327 67.5497 17.284C67.797 16.7354 67.9207 16.0983 67.9207 15.3727V6.39114H65.384V7.32024H65.3312C65.1624 7.15848 64.9797 7.011 64.7828 6.87781C64.1701 6.45895 63.4543 6.24957 62.6352 6.24957C61.9279 6.24957 61.2472 6.42948 60.5932 6.78933C59.9392 7.14329 59.4031 7.67424 58.9846 8.38214C58.5722 9.08414 58.3657 9.96605 58.3657 11.028C58.3657 11.8243 58.4865 12.5175 58.7282 13.1074C58.9698 13.6973 59.2909 14.1899 59.6919 14.5852C60.0985 14.9745 60.549 15.2665 61.0441 15.4612C61.5393 15.65 62.0368 15.7444 62.5377 15.7444C63.3454 15.7444 64.0641 15.5231 64.6948 15.0807C64.8941 14.9389 65.0806 14.7825 65.2532 14.6117H65.2955V15.532C65.2955 15.9862 65.1486 16.352 64.8537 16.6292C64.5592 16.9124 64.2025 17.1189 63.7844 17.2487C63.3658 17.3785 62.962 17.4433 62.5734 17.4433C62.1196 17.4433 61.6715 17.3696 61.2296 17.2221C60.7935 17.0805 60.4106 16.9095 60.0809 16.7089L59.1615 18.9034C59.5387 19.104 60.0543 19.2987 60.7083 19.4874ZM64.3499 13.1517C64.026 13.364 63.6517 13.4702 63.2274 13.4702C62.8088 13.4702 62.4407 13.364 62.1225 13.1517C61.8042 12.9334 61.554 12.6355 61.3714 12.2579C61.1887 11.8745 61.0969 11.435 61.0969 10.9394C61.0969 10.4439 61.1887 10.0132 61.3714 9.64753C61.5597 9.28176 61.819 9.00153 62.1491 8.80686C62.4792 8.60629 62.8531 8.506 63.2716 8.506C63.6897 8.506 64.0584 8.60333 64.3766 8.798C64.6948 8.99272 64.945 9.27291 65.1276 9.63867C65.3103 9.99852 65.4016 10.4321 65.4016 10.9394C65.4016 11.4409 65.3074 11.8833 65.1191 12.2668C64.9302 12.6443 64.6739 12.9393 64.3499 13.1517Z" fill="#0E0E0E"/>
<path fill-rule="evenodd" clip-rule="evenodd" d="M52.698 16.0629C51.7847 16.0629 50.9509 15.8535 50.1965 15.4346C49.4483 15.0158 48.8499 14.4376 48.4023 13.7003C47.9604 12.9628 47.7393 12.1134 47.7393 11.1518C47.7393 10.1902 47.9604 9.34074 48.4023 8.60331C48.8499 7.86593 49.4483 7.29074 50.1965 6.87779C50.9509 6.46484 51.7847 6.25836 52.698 6.25836C53.6288 6.25836 54.4688 6.46484 55.217 6.87779C55.9652 7.29074 56.5574 7.86593 56.9936 8.60331C57.4355 9.34074 57.6567 10.1902 57.6567 11.1518C57.6567 12.1134 57.4355 12.9628 56.9936 13.7003C56.5574 14.4376 55.9624 15.0158 55.208 15.4346C54.4598 15.8535 53.6231 16.0629 52.698 16.0629ZM52.698 13.6737C53.1341 13.6737 53.5256 13.5676 53.8733 13.3552C54.221 13.1428 54.495 12.8478 54.6957 12.4703C54.896 12.0927 54.9959 11.6532 54.9959 11.1518C54.9959 10.6681 54.8988 10.2374 54.7043 9.85984C54.5097 9.48231 54.2419 9.18736 53.8999 8.97498C53.5584 8.75669 53.1632 8.64755 52.7156 8.64755C52.2737 8.64755 51.876 8.75374 51.5221 8.96612C51.1744 9.1726 50.9005 9.4646 50.7002 9.84217C50.5 10.2197 50.3996 10.6563 50.3996 11.1518C50.3996 11.6532 50.5 12.0927 50.7002 12.4703C50.9066 12.8478 51.1835 13.1428 51.5312 13.3552C51.8789 13.5676 52.2675 13.6737 52.698 13.6737Z" fill="#0E0E0E"/>
<path d="M40.188 2.87811V15.9213H47.7808V13.3375H43.0872V2.87811H40.188Z" fill="#0E0E0E"/>
</g>
<defs>
<clipPath id="clip0_8360_4885">
<rect width="127" height="20" fill="white"/>
</clipPath>
</defs>
</svg>
